HIERARCHY
ROOT Hips
{
  OFFSET 0 0 0
  CHANNELS 6 Xposition Yposition Zposition Zrotation Yrotation Xrotation
  JOINT LeftThigh
  {
    OFFSET 8.409438 0 -5.917753
    CHANNELS 3 Zrotation Yrotation Xrotation
    JOINT LeftLeg
    {
      OFFSET 0 0 -42.358652
      CHANNELS 3 Zrotation Yrotation Xrotation
      JOINT LeftFoot
      {
        OFFSET 0 0 -39.357303
        CHANNELS 3 Zrotation Yrotation Xrotation
      }
    }
  }
  JOINT RightThigh
  {
    OFFSET -8.409438 0 -5.917753
    CHANNELS 3 Zrotation Yrotation Xrotation
    JOINT RightLeg
    {
      OFFSET 0 0 -42.358652
      CHANNELS 3 Zrotation Yrotation Xrotation
      JOINT RightFoot
      {
        OFFSET 0 0 -39.357303
        CHANNELS 3 Zrotation Yrotation Xrotation
      }
    }
  }
  JOINT SpineLow
  {
    OFFSET 0 0 4.719101
    CHANNELS 3 Zrotation Yrotation Xrotation
    JOINT SpineMid
    {
      OFFSET 0 0 12.899191
      CHANNELS 3 Zrotation Yrotation Xrotation
      JOINT Chest
      {
        OFFSET 0 0 12.899191
        CHANNELS 3 Zrotation Yrotation Xrotation
        JOINT LeftShoulder
        {
          OFFSET 7.550562 1.41573 9.438202
          CHANNELS 3 Zrotation Yrotation Xrotation
          JOINT LeftArm
          {
            OFFSET 9.155056 0 4.247191
            CHANNELS 3 Zrotation Yrotation Xrotation
            JOINT LeftForearm
            {
              OFFSET 0 0 25.771955
              CHANNELS 3 Zrotation Yrotation Xrotation
              JOINT LeftHand
              {
                OFFSET 0 0 25.197169
                CHANNELS 3 Zrotation Yrotation Xrotation
              }
            }
          }
        }
        JOINT RightShoulder
        {
          OFFSET -7.550562 1.41573 9.438202
          CHANNELS 3 Zrotation Yrotation Xrotation
          JOINT RightArm
          {
            OFFSET -9.155056 0 4.247191
            CHANNELS 3 Zrotation Yrotation Xrotation
            JOINT RightForearm
            {
              OFFSET 0 0 -25.771955
              CHANNELS 3 Zrotation Yrotation Xrotation
              JOINT RightHand
              {
                OFFSET 0 0 -25.197169
                CHANNELS 3 Zrotation Yrotation Xrotation
              }
            }
          }
        }
        JOINT Neck
        {
          OFFSET 0 0 15.101124
          CHANNELS 3 Zrotation Yrotation Xrotation
          JOINT Head
          {
            OFFSET 0 0 11.325843
            CHANNELS 3 Zrotation Yrotation Xrotation
            End Site
            {
              OFFSET 0 0 14.157303
            }
          }
        }
      }
    }
  }
}
MOTION
Frames: 5
Frame Time: 0.0
0.0  93.25843  0.0  19.373797  -4.170021  -119.986413  45.785352  -0.933838  -115.831937  16.564728  39.219403  111.20814  0.779327  -6.885898  7.060443  -6.551525  12.74964  15.155976  5.694829  11.089722  16.096652  8.284369  4.16107  2.429703  1.449031  1.24068  2.181811  4.072067  3.255954  6.040197  4.072067  3.255954  6.040197  -11.241665  23.726364  8.543031  167.736306  48.738758  -135.11982  -20.304357  -34.621527  79.003792  -56.069722  -34.526973  101.681724  1.601445  -5.34922  25.921301  108.470015  49.635358  28.246365  -41.551209  36.5186  -52.643658  45.773719  -52.21697  93.682016  5.737168  5.548374  13.681218  4.177418  4.292595  10.201753  
0.0  93.25843  0.0  19.336049  -4.117533  -119.913152  44.901941  -0.056835  -114.318164  14.531123  38.557565  108.216667  -0.136246  -7.076005  8.194557  -6.074438  12.567422  15.460434  5.687038  11.029043  15.976102  8.113888  4.120373  2.571556  1.167001  1.112133  2.235248  3.291523  2.928242  6.165615  3.291523  2.928242  6.165615  -8.234415  26.209137  9.412231  168.086672  45.085706  -137.732038  -22.332643  -31.131847  78.270156  -44.810888  -19.932167  95.637965  2.66762  -4.606389  26.96489  106.395436  46.699667  29.593475  -37.705768  33.806961  -51.039025  33.69022  -44.837146  97.545732  6.755423  6.246102  13.189968  4.928968  4.833561  9.814836  
0.0  93.25843  0.0  19.054234  -3.935174  -119.832521  44.449839  0.619746  -114.224371  13.720213  38.098404  108.328335  -0.745865  -6.691439  8.356788  -6.126659  12.406923  15.564037  5.746999  10.938833  15.912172  8.099529  4.14678  2.716549  0.82852  0.957644  2.211392  2.351119  2.539004  6.079389  2.351119  2.539004  6.079389  -4.727285  28.598929  11.280099  169.410613  41.70172  -139.270052  -22.201598  -27.545908  76.116662  -33.551618  -11.822166  95.987154  4.361604  -3.791235  28.583663  103.314082  44.21381  30.919344  -33.829398  30.586102  -49.886451  25.576974  -36.606937  96.424578  7.536335  7.045395  12.799681  5.499744  5.445432  9.50212  
0.0  93.25843  0.0  18.567534  -3.629006  -119.782021  44.008886  0.207416  -113.79388  14.488034  38.254114  109.24759  -0.209779  -6.483548  8.215899  -6.506328  12.185056  15.565272  5.696398  10.85406  15.910126  8.206443  4.074827  2.876843  0.372192  0.82954  2.257054  1.094108  2.230403  6.184201  1.094108  2.230403  6.184201  -1.014181  30.652576  12.357047  171.105232  38.37904  -140.760364  -21.667672  -25.039059  72.935566  -22.54128  -6.151018  98.614472  6.575328  -2.438261  30.268861  100.129156  42.59495  31.160913  -29.848409  27.621566  -48.599171  21.909533  -28.24613  91.210466  8.68775  7.520495  12.181339  6.358763  5.817327  9.017597  
0.0  93.25843  0.0  17.968571  -3.171932  -119.533138  43.491399  -0.187887  -113.060582  15.372328  38.566448  110.624195  0.232709  -6.212996  7.608659  -6.28012  11.707112  15.952256  4.781751  10.757245  15.547086  8.2191  3.983175  2.996217  0.067752  0.75123  2.31633  0.256996  2.044756  6.335421  0.256996  2.044756  6.335421  1.320089  32.159129  14.066322  172.98516  35.703374  -142.265331  -20.336163  -23.874289  70.144245  -12.942369  -3.804671  103.135597  8.037203  -1.504851  31.428628  96.570087  41.355623  30.738596  -26.537659  24.732306  -47.734169  19.693731  -19.857231  86.644376  9.039271  7.606649  11.395973  6.629625  5.877144  8.423512  
